<?xml version="1.0" encoding="UTF-8" standalone="no"?>
<!-- Created with DrawBerry (http://raphaelbost.free.fr/) -->
<svg 
 	 width = "80.000000" 
 	 height = "80.000000" 
xmlns:dc="http://purl.org/dc/elements/1.1/"
xmlns:cc="http://web.resource.org/cc/"
xmlns:rdf="http://www.w3.org/1999/02/22-rdf-syntax-ns#"
 xmlns:svg="http://www.w3.org/2000/svg"
 xmlns="http://www.w3.org/2000/svg" 
 xmlns:sodipodi="http://inkscape.sourceforge.net/DTD/sodipodi-0.dtd"
 xmlns:inkscape="http://www.inkscape.org/namespaces/inkscape"
 >
<g inkscape:label="" inkscape:groupmode="layer" id="">
<path  style="fill:#ea0d00;fill-opacity:1.000000;stroke:#ea0d00;stroke-width:1.000000px;stroke-opacity:1.000000;stroke-linecap:butt;stroke-linejoin:miter;" 
 d="M 67.951836,9.352579 C 82.833763,20.525799 82.833763,38.641201 67.951836,49.814442 C 53.069946,60.987640 28.941710,60.987640 14.059843,49.814442 C -0.822031,38.641201 -0.822031,20.525799 14.059843,9.352579 C 28.941710,-1.820650 53.069946,-1.820650 67.951836,9.352579  z"  />
<path  style="fill:#ffffff;fill-opacity:1.000000;stroke:#ea0d00;stroke-width:1.000000px;stroke-opacity:1.000000;stroke-linecap:butt;stroke-linejoin:miter;" 
 d="M 65.476173,12.801649 C 78.665497,21.942179 78.665497,36.761887 65.476173,45.902416 C 52.286819,55.042942 30.902647,55.042942 17.713295,45.902416 C 4.523953,36.761887 4.523953,21.942179 17.713295,12.801649 C 30.902647,3.661168 52.286819,3.661168 65.476173,12.801649  z"  />
<path  style="fill:#000000;fill-opacity:1.000000;stroke:#ffffff;stroke-width:1.000000px;stroke-opacity:1.000000;stroke-linecap:butt;stroke-linejoin:miter;" 
 d="M 31.700195,27.125000 L 50.538086,27.125000 L 50.538086,32.667969 L 31.700195,32.667969 L 31.700195,27.125000  z"  />
<path  style="fill:#ea0d00;fill-opacity:1.000000;stroke:#ea0d00;stroke-width:1.000000px;stroke-opacity:1.000000;stroke-linecap:butt;stroke-linejoin:miter;" 
 d="M 24.217773,54.803711 L 41.670898,78.932617 L 58.932617,54.784180 L 58.932617,54.784180 "  />
<path  style="fill:#000000;fill-opacity:1.000000;stroke:#ffffff;stroke-width:1.000000px;stroke-opacity:1.000000;stroke-linecap:butt;stroke-linejoin:miter;" 
 d="M 50.497070,19.809082 L 55.846680,19.809082 L 55.846680,40.494629 L 50.497070,40.494629 L 50.497070,19.809082  z"  />
<path  style="fill:#000000;fill-opacity:1.000000;stroke:#ffffff;stroke-width:1.000000px;stroke-opacity:1.000000;stroke-linecap:butt;stroke-linejoin:miter;" 
 d="M 55.980469,24.305176 L 61.395508,24.305176 L 61.395508,36.447754 L 55.980469,36.447754 L 55.980469,24.305176  z"  />
<path  style="fill:#000000;fill-opacity:1.000000;stroke:#ffffff;stroke-width:1.000000px;stroke-opacity:1.000000;stroke-linecap:butt;stroke-linejoin:miter;" 
 d="M 20.972656,23.927246 L 26.387695,23.927246 L 26.387695,36.069824 L 20.972656,36.069824 L 20.972656,23.927246  z"  />
<path  style="fill:#000000;fill-opacity:1.000000;stroke:#ffffff;stroke-width:1.000000px;stroke-opacity:1.000000;stroke-linecap:butt;stroke-linejoin:miter;" 
 d="M 26.411133,19.901855 L 32.127930,19.901855 L 32.127930,40.150391 L 26.411133,40.150391 L 26.411133,19.901855  z"  />
</g>
</svg>
